<?xml version="1.0" standalone="no"?>
<!DOCTYPE svg PUBLIC "-//W3C//DTD SVG 20010904//EN"
 "http://www.w3.org/TR/2001/REC-SVG-20010904/DTD/svg10.dtd">
<svg version="1.0" xmlns="http://www.w3.org/2000/svg"
 width="500.000000pt" height="500.000000pt" viewBox="0 0 500.000000 500.000000"
 preserveAspectRatio="xMidYMid meet">
<metadata>
Created by potrace 1.11, written by Peter Selinger 2001-2013
</metadata>
<g transform="translate(0.000000,500.000000) scale(0.100000,-0.100000)"
fill="#000000" stroke="none">
<path d="M0 2500 l0 -2500 2500 0 2500 0 0 2500 0 2500 -2500 0 -2500 0 0
-2500z m2522 1009 c178 -38 288 -185 288 -383 0 -101 -20 -180 -68 -269 -67
-124 -184 -225 -312 -267 -91 -31 -231 -26 -310 11 -72 34 -135 98 -173 179
-25 53 -32 81 -35 150 -5 110 10 181 60 282 108 216 341 341 550 297z m765
-307 c103 -172 187 -311 189 -309 3 3 94 569 94 586 0 7 31 11 90 11 l90 0 -7
-42 c-3 -24 -36 -230 -72 -458 l-66 -415 -65 0 -65 0 -186 314 c-132 221 -189
308 -192 295 -3 -11 -24 -138 -47 -284 -22 -146 -43 -275 -45 -287 -5 -22 -10
-23 -90 -23 -71 0 -85 3 -85 16 0 9 32 215 70 459 39 244 70 446 70 449 0 4
30 6 66 4 l66 -3 185 -313z m-2039 236 c-18 -109 -1 -98 -153 -98 l-134 0 -5
-32 c-3 -18 -10 -60 -16 -92 -5 -33 -10 -63 -10 -68 0 -4 57 -8 126 -8 l127 0
-7 -52 c-14 -107 -1 -98 -145 -98 l-127 0 -28 -182 c-15 -101 -30 -191 -33
-200 -4 -15 -17 -18 -89 -18 -70 0 -84 3 -84 16 0 19 130 853 135 872 3 9 58
12 228 12 l224 0 -9 -52z m463 42 c57 -16 102 -51 127 -100 52 -100 3 -282
-97 -358 -24 -18 -57 -36 -72 -39 -16 -3 -29 -9 -29 -14 0 -5 41 -90 90 -189
50 -99 90 -182 90 -185 0 -3 -47 -5 -103 -5 l-104 0 -81 182 c-64 145 -82 177
-86 158 -3 -14 -15 -86 -26 -160 -11 -74 -23 -145 -26 -157 -4 -22 -9 -23 -89
-23 -71 0 -85 3 -85 16 0 19 130 853 135 872 5 15 301 17 356 2z m2635 -42
c-14 -105 -7 -98 -107 -98 -84 0 -89 -1 -94 -22 -4 -20 -115 -716 -115 -725 0
-1 -41 -3 -90 -3 -89 0 -90 0 -85 23 4 19 115 715 115 724 0 1 -41 3 -91 3
l-91 0 6 33 c3 17 8 51 12 75 l7 42 270 0 270 0 -7 -52z m-2639 -1336 c103
-172 187 -311 189 -309 3 3 94 569 94 586 0 7 31 11 90 11 l90 0 -7 -42 c-3
-24 -36 -230 -72 -458 l-66 -415 -65 0 -65 0 -186 314 c-132 221 -189 308
-192 295 -3 -11 -24 -138 -47 -284 -22 -146 -43 -275 -45 -287 -5 -22 -10 -23
-90 -23 -71 0 -85 3 -85 16 0 9 32 215 70 459 39 244 70 446 70 449 0 4 30 6
66 4 l66 -3 185 -313z m-441 227 c-11 -95 0 -89 -162 -89 l-143 0 -5 -32 c-3
-18 -10 -60 -16 -92 -5 -33 -10 -63 -10 -68 0 -4 63 -8 141 -8 l141 0 -5 -22
c-3 -13 -9 -47 -13 -75 l-7 -53 -142 0 -142 0 -16 -112 c-10 -62 -17 -119 -17
-125 0 -10 35 -13 143 -13 l143 0 -11 -72 -11 -73 -232 -3 c-209 -2 -232 -1
-232 14 0 19 130 853 135 872 3 9 59 12 236 12 l232 0 -7 -61z m1428 41 c156
-59 233 -187 223 -375 -9 -193 -122 -367 -289 -449 -94 -47 -150 -56 -324 -56
-126 0 -144 2 -144 16 0 19 130 853 135 872 3 9 47 12 174 12 147 0 178 -3
225 -20z m879 -360 c21 -38 41 -71 45 -74 4 -2 32 29 62 70 l55 73 105 1 104
0 -35 -37 c-19 -21 -74 -80 -122 -131 -48 -51 -87 -98 -87 -104 0 -8 116 -201
178 -295 l14 -23 -104 0 -104 0 -58 100 c-32 55 -59 100 -61 100 -2 0 -41 -45
-85 -100 l-82 -100 -106 0 -106 0 74 78 c41 42 110 114 154 158 l78 82 -81
136 -80 136 102 0 103 0 37 -70z"/>
<path d="M2293 3315 c-58 -29 -131 -103 -161 -161 -88 -172 4 -396 167 -412
142 -13 315 163 329 334 5 71 -8 120 -49 181 -58 83 -183 109 -286 58z"/>
<path d="M1510 3343 c0 -5 -9 -62 -20 -128 -11 -66 -20 -123 -20 -127 0 -15
86 -7 128 12 49 22 81 79 82 143 0 51 -15 76 -55 93 -36 15 -115 19 -115 7z"/>
<path d="M2447 2219 c-14 -61 -90 -570 -85 -574 9 -10 151 15 193 34 92 41
154 136 176 269 29 174 -45 275 -210 289 -66 5 -68 5 -74 -18z"/>
</g>
</svg>
